# xmcd CD database file
#
# Track frame offsets:
#	150
#	20724
#	22492
#	28397
#	47850
#	51272
#	58758
#	61134
#	68447
#	81927
#	98183
#	101538
#	119524
#	122853
#	132711
#	137954
#	146267
#	153654
#	161998
#	164100
#	170819
#	190288
#
# Disc length: 2578 seconds
#
# Revision: 3
# Processed by: cddbd v1.5.2PL0 Copyright (c) Steve Scherf et al.
# Submitted via: CDex 2.22
#
DISCID=5f0a1016
DTITLE=Justin Hurwitz - La La Land_The Complete Musical Experience
DYEAR=2017
DGENRE=Jazz
TTITLE0=performed by La La Land Cast - Another Day of Sun (with Radios)
TTITLE1=Mia Gets Home
TTITLE2=Bathroom Mirror \\ You're Coming Right ?
TTITLE3=performed by Emma Stone, Callie Hernandez, Sonoya Mizuno and Jessica Rothe - Someone In The Crowd
TTITLE4=Classic Rope-A-Dope
TTITLE5=performed by Thelonious Monk - Japanese Folk Song
TTITLE6=Deck The Halls
TTITLE7=Mia and Sebastian's Theme
TTITLE8=performed by D.A.Wallach - Take On Me
TTITLE9=performed by D.A.Wallach - I Ran
TTITLE10=Stroll Up The Hill
TTITLE11=performed by Ryan Gosling and Emma Stone - A Lovely Night
TTITLE12=There The Whole Time \\ Twirl
TTITLE13=Bogart and Bergman
TTITLE14=Mia Hates Jazz
TTITLE15=Herman's Habit
TTITLE16=Rialto at Ten
TTITLE17=performed by Ryan Gosling - City of Stars
TTITLE18=Rialto
TTITLE19=Mia and Sebastian's Theme (Late For The Date)
TTITLE20=Planetarium
TTITLE21=Holy Hell !
EXTD=Powerd by gracenote music web API YEAR: 2017
EXTT0=
EXTT1=
EXTT2=
EXTT3=
EXTT4=
EXTT5=
EXTT6=
EXTT7=
EXTT8=
EXTT9=
EXTT10=
EXTT11=
EXTT12=
EXTT13=
EXTT14=
EXTT15=
EXTT16=
EXTT17=
EXTT18=
EXTT19=
EXTT20=
EXTT21=
PLAYORDER=
